<svg xmlns="http://www.w3.org/2000/svg" xmlns:xlink="http://www.w3.org/1999/xlink" width="65" height="1600" viewBox="0 0 65 1600"><svg width="64" height="64" viewBox="0 0 64 64" fill="none" id="apple" y="0"><path d="M34.531 8.127A8.003 8.003 0 0 1 42 3M54.628 40.733C51.484 48.413 45.776 54 41 54H23C16 54 7 42 7 29a15 15 0 0 1 25-11.18 15 15 0 0 1 21.792 1.908 12.005 12.005 0 0 0 .835 21.005h.001z" stroke="#2D3841" stroke-width="2" vector-effect="non-scaling-stroke" stroke-linecap="round" stroke-linejoin="round"></path></svg><svg width="64" height="64" viewBox="0 0 64 64" fill="none" id="bookmark" y="64"><path d="M44 8v24l-8.002-6L28 32V8" stroke="#2D3841" stroke-width="2" stroke-linecap="round" stroke-linejoin="round"></path><path d="M12 54a6 6 0 0 1 6-6h34V8H18a6 6 0 0 0-6 6v40z" stroke="#2D3841" stroke-width="2" stroke-linecap="round" stroke-linejoin="round"></path><path d="M12 54v2h36" fill="#2D3841"></path><path d="M12 54v2h36" stroke="#2D3841" stroke-width="2" stroke-linecap="round" stroke-linejoin="round"></path></svg><svg width="64" height="64" viewBox="0 0 64 64" fill="none" id="brain" y="128"><path d="M32 44V20M22 36a10 10 0 1 1-10 10v-1.683" stroke="#2D3841" stroke-width="2" stroke-linecap="round" stroke-linejoin="round"></path><path d="M42 36a10 10 0 1 0 10 10v-1.683" stroke="#2D3841" stroke-width="2" stroke-linecap="round" stroke-linejoin="round"></path><path d="M18 45h-2a12.002 12.002 0 0 1-4-23.317V18a10 10 0 0 1 20 0v28M46 45h2a12.002 12.002 0 0 0 4-23.317V18a10 10 0 0 0-20 0" stroke="#2D3841" stroke-width="2" stroke-linecap="round" stroke-linejoin="round"></path><path d="M22 21v2a7 7 0 0 1-7 7M42 21v2a7 7 0 0 0 7 7" stroke="#2D3841" stroke-width="2" stroke-linecap="round" stroke-linejoin="round"></path></svg><svg width="64" height="64" viewBox="0 0 64 64" fill="none" id="buildings" y="192"><path d="M4 53.996h56M36 53.996v-44a2 2 0 0 0-2-2H10a2 2 0 0 0-2 2v44M56 53.996v-28a2 2 0 0 0-2-2H36M16 17.996h8M20 33.996h8M16 43.996h8M44 43.996h4M44 33.996h4" stroke="#2D3841" stroke-width="2" stroke-linecap="round" stroke-linejoin="round"></path></svg><svg width="64" height="64" viewBox="0 0 64 64" fill="none" id="check" y="256"><path d="M54.262 20.17L25.995 48.437a1.333 1.333 0 0 1-1.893 0L9.728 34.064a1.333 1.333 0 0 1 0-1.894l1.867-1.867a1.334 1.334 0 0 1 1.893 0L25.035 41.85l25.467-25.466a1.36 1.36 0 0 1 1.893 0l1.867 1.893a1.333 1.333 0 0 1 0 1.893z" fill="#333"></path></svg><svg width="64" height="64" viewBox="0 0 64 64" fill="none" id="check_circle" y="320"><path d="M32 6a26 26 0 1 0 26 26A26.03 26.03 0 0 0 32 6zm12.383 21.447l-14.668 14a2.006 2.006 0 0 1-2.766 0l-7.332-7a2.002 2.002 0 0 1 2.766-2.894l5.949 5.681 13.285-12.681a2.002 2.002 0 0 1 2.766 2.894z" fill="#2D3841"></path></svg><svg width="64" height="64" viewBox="0 0 64 64" fill="none" id="clipboard" y="384"><path d="M24 38h16M24 30h16M40 10h10a2 2 0 0 1 2 2v42a2 2 0 0 1-2 2H14a2 2 0 0 1-2-2V12a2 2 0 0 1 2-2h10" stroke="#2D3841" stroke-width="2" stroke-linecap="round" stroke-linejoin="round"></path><path d="M22 18v-2a10 10 0 0 1 20 0v2H22z" stroke="#2D3841" stroke-width="2" stroke-linecap="round" stroke-linejoin="round"></path></svg><svg width="65" height="64" viewBox="0 0 65 64" fill="none" id="crosshair" y="448"><path d="M32.5 7a25 25 0 1 0 25 25 25.028 25.028 0 0 0-25-25zm2 45.902V45a2 2 0 0 0-4 0v7.902A21.033 21.033 0 0 1 11.598 34H19.5a2 2 0 1 0 0-4h-7.902A21.033 21.033 0 0 1 30.5 11.098V19a2 2 0 0 0 4 0v-7.902A21.033 21.033 0 0 1 53.402 30H45.5a2 2 0 0 0 0 4h7.902A21.033 21.033 0 0 1 34.5 52.902z" fill="#2D3841"></path></svg><svg width="64" height="64" viewBox="0 0 64 64" fill="none" id="dollar" y="512"><path d="M32 6v52M46 22a10 10 0 0 0-10-10h-9a10 10 0 0 0 0 20h11a10 10 0 0 1 0 20H26a10 10 0 0 1-10-10" stroke="#2D3841" stroke-width="2" stroke-linecap="round" stroke-linejoin="round"></path></svg><svg width="65" height="64" viewBox="0 0 65 64" fill="none" id="eye" y="576"><path d="M32.5 13.998c-20 0-28 18.002-28 18.002s8 17.998 28 17.998S60.5 32 60.5 32s-8-18.002-28-18.002z" stroke="#2D3841" stroke-width="2" vector-effect="non-scaling-stroke" stroke-linecap="round" stroke-linejoin="round"></path><path d="M32.5 42c5.523 0 10-4.477 10-10s-4.477-10-10-10-10 4.477-10 10 4.477 10 10 10z" stroke="#2D3841" stroke-width="2" vector-effect="non-scaling-stroke" stroke-linecap="round" stroke-linejoin="round"></path></svg><svg width="65" height="64" viewBox="0 0 65 64" fill="none" id="flower" y="640"><path d="M32.5 39a7 7 0 1 0 0-14 7 7 0 0 0 0 14z" stroke="#2D3841" stroke-width="2" vector-effect="non-scaling-stroke" stroke-linecap="round" stroke-linejoin="round"></path><path d="M29.257 25.796C27.426 21.945 25.5 17.147 25.5 14a7 7 0 1 1 14 0c0 3.147-1.926 7.945-3.757 11.796M25.506 31.706c-4.25-.34-9.368-1.07-12.094-2.644a7 7 0 0 1 7-12.124c2.726 1.573 5.918 5.64 8.337 9.151M28.75 37.91c-2.42 3.512-5.612 7.579-8.338 9.152a7 7 0 0 1-7-12.124c2.726-1.574 7.844-2.305 12.094-2.644M35.743 38.204C37.574 42.055 39.5 46.853 39.5 50a7 7 0 0 1-14 0c0-3.147 1.926-7.945 3.757-11.796M39.493 32.294c4.25.34 9.368 1.07 12.094 2.644a7 7 0 0 1-7 12.124c-2.726-1.573-5.918-5.64-8.337-9.151M36.25 26.09c2.42-3.512 5.611-7.579 8.337-9.152a7 7 0 0 1 7 12.124c-2.726 1.574-7.843 2.305-12.094 2.644" stroke="#2D3841" stroke-width="2" vector-effect="non-scaling-stroke" stroke-linecap="round" stroke-linejoin="round"></path></svg><svg width="65" height="64" viewBox="0 0 65 64" fill="none" id="fork_knife" y="704"><path d="M21.5 8v10M21.5 29v27M28.5 8l2 12a9 9 0 0 1-18 0l2-12M51.5 40h-14s3-28 14-32v48" stroke="#2D3841" stroke-width="2" vector-effect="non-scaling-stroke" stroke-linecap="round" stroke-linejoin="round"></path></svg><svg width="65" height="64" viewBox="0 0 65 64" fill="none" id="globe" y="768"><path d="M32.5 56c13.255 0 24-10.745 24-24S45.755 8 32.5 8s-24 10.745-24 24 10.745 24 24 24z" stroke="#2D3841" stroke-width="2" vector-effect="non-scaling-stroke" stroke-miterlimit="10"></path><path d="M8.5 32h48" stroke="#2D3841" stroke-width="2" vector-effect="non-scaling-stroke" stroke-linecap="round" stroke-linejoin="round"></path><path d="M32.5 55.356c5.523 0 10-10.457 10-23.356 0-12.899-4.477-23.356-10-23.356S22.5 19.101 22.5 32c0 12.899 4.477 23.356 10 23.356z" stroke="#2D3841" stroke-width="2" vector-effect="non-scaling-stroke" stroke-miterlimit="10"></path></svg><svg width="64" height="64" viewBox="0 0 64 64" fill="none" id="heart" y="832"><path d="M32 54S7 40 7 23a13.002 13.002 0 0 1 25-5.009A13.002 13.002 0 0 1 57 23c0 17-25 31-25 31z" stroke="#2D3841" stroke-width="2" stroke-linecap="round" stroke-linejoin="round"></path></svg><svg width="65" height="64" viewBox="0 0 65 64" fill="none" id="heartbeat" y="896"><path d="M8.5 32h10l4-6 8 12 4-6h6" stroke="#2D3841" stroke-width="2" vector-effect="non-scaling-stroke" stroke-linecap="round" stroke-linejoin="round"></path><path d="M7.529 23.998A17.644 17.644 0 0 1 7.5 23a13.002 13.002 0 0 1 25-5.009A13.002 13.002 0 0 1 57.5 23c0 17-25 31-25 31s-9.986-5.592-17.336-14" stroke="#2D3841" stroke-width="2" vector-effect="non-scaling-stroke" stroke-linecap="round" stroke-linejoin="round"></path></svg><svg width="64" height="64" viewBox="0 0 64 64" fill="none" id="laptop" y="960"><path vector-effect="non-scaling-stroke" d="M10 44V18a4 4 0 0 1 4-4h36a4 4 0 0 1 4 4v26M6 44h52v4a4 4 0 0 1-4 4H10a4 4 0 0 1-4-4v-4zM36 22h-8" stroke="#2D3841" stroke-width="2" stroke-linecap="round" stroke-linejoin="round"></path></svg><svg width="65" height="64" viewBox="0 0 65 64" fill="none" id="lotus" y="1024"><path d="M32.5 50c4 0 10.614-.045 18.222-4.438 7.609-4.393 10.071-9.895 10.859-12.713a1.988 1.988 0 0 0-1.42-2.458c-1.845-.473-5.032-.901-9.132.072M13.968 30.462c-4.1-.972-7.287-.544-9.132-.071a1.989 1.989 0 0 0-1.42 2.458c.788 2.818 3.25 8.32 10.859 12.713C21.883 49.955 28.497 50 32.497 50" stroke="#2D3841" stroke-width="2" vector-effect="non-scaling-stroke" stroke-linecap="round" stroke-linejoin="round"></path><path d="M32.5 50s10-5.455 10-20c0-11.396-6.138-17.212-8.797-19.196a2.009 2.009 0 0 0-2.406 0C28.638 12.788 22.5 18.604 22.5 30c0 14.545 10 20 10 20z" stroke="#2D3841" stroke-width="2" vector-effect="non-scaling-stroke" stroke-linecap="round" stroke-linejoin="round"></path><path d="M32.5 50c2.998-.638 11.083-5.196 15.928-13.589 4.846-8.393 3.652-15.094 2.706-18.009a1.998 1.998 0 0 0-2.318-1.338 19.36 19.36 0 0 0-7.84 3.783M24.023 20.847a19.36 19.36 0 0 0-7.839-3.783 1.998 1.998 0 0 0-2.318 1.338c-.947 2.915-2.14 9.616 2.706 18.01C21.417 44.803 29.502 49.361 32.5 50" stroke="#2D3841" stroke-width="2" vector-effect="non-scaling-stroke" stroke-linecap="round" stroke-linejoin="round"></path></svg><svg width="64" height="64" viewBox="0 0 64 64" fill="none" id="money" y="1088"><path d="M58 16H6a2 2 0 0 0-2 2v28a2 2 0 0 0 2 2h52a2 2 0 0 0 2-2V18a2 2 0 0 0-2-2z" stroke="#2D3841" stroke-width="2" stroke-linecap="round" stroke-linejoin="round"></path><path d="M32 40a8 8 0 1 0 0-16 8 8 0 0 0 0 16zM44 16l16 14M44 48l16-14" stroke="#2D3841" stroke-width="2" stroke-linecap="round" stroke-linejoin="round"></path><path d="M20 16L4 30M20 48L4 34" stroke="#000" stroke-width="2" stroke-linecap="round" stroke-linejoin="round"></path></svg><svg width="64" height="64" viewBox="0 0 64 64" fill="none" id="person" y="1152"><path d="M31.969 18a6 6 0 1 0 0-12 6 6 0 0 0 0 12zM32 26v12M16 56l16-18 16 18M8 32s10-6 24-6 24 6 24 6" stroke="#2D3841" stroke-width="2" stroke-linecap="round" stroke-linejoin="round"></path></svg><svg width="64" height="64" viewBox="0 0 64 64" fill="none" id="power" y="1216"><path vector-effect="non-scaling-stroke" d="M31.998 12v19M44 13.558a22 22 0 1 1-24 0" stroke="#2D3841" stroke-width="2" stroke-linecap="round" stroke-linejoin="round"></path></svg><svg width="65" height="64" viewBox="0 0 65 64" fill="none" id="running" y="1280"><path d="M38.5 20a6 6 0 1 0 0-12 6 6 0 0 0 0 12zM14.5 25.388s8-7.388 20 2c12.617 9.87 20 6 20 6M34.269 27.209C33.183 32.31 25.889 51.739 8.5 50M28.164 40.29C32.62 41.242 44.503 45 44.503 58" stroke="#2D3841" stroke-width="2" vector-effect="non-scaling-stroke" stroke-linecap="round" stroke-linejoin="round"></path></svg><svg width="65" height="64" viewBox="0 0 65 64" fill="none" id="student" y="1344"><path d="M8.5 16v20M14.055 54a22.007 22.007 0 0 1 36.884 0M56.5 16l-24 8-24-8 24-8 24 8zM42.834 20.555a14 14 0 1 1-20.668 0" stroke="#2D3841" stroke-width="2" vector-effect="non-scaling-stroke" stroke-linecap="round" stroke-linejoin="round"></path></svg><svg width="64" height="64" viewBox="0 0 64 64" fill="none" id="timer" y="1408"><path vector-effect="non-scaling-stroke" d="M32 54c12.15 0 22-9.85 22-22s-9.85-22-22-22-22 9.85-22 22 9.85 22 22 22z" stroke="#2D3841" stroke-width="2" stroke-miterlimit="10"></path><path vector-effect="non-scaling-stroke" d="M32 32l9.9-9.9M26 2h12" stroke="#2D3841" stroke-width="2" stroke-linecap="round" stroke-linejoin="round"></path></svg><svg width="64" height="64" viewBox="0 0 64 64" fill="none" id="user_focus" y="1472"><path d="M45 10h7a2 2 0 0 1 2 2v7M45 54h7a2 2 0 0 0 2-2v-7M19 54h-7a2 2 0 0 1-2-2v-7" stroke="#2D3841" stroke-width="2" stroke-linecap="round" stroke-linejoin="round"></path><path d="M19 10h-7a2 2 0 0 0-2 2v7M32 36a8 8 0 1 0 0-16 8 8 0 0 0 0 16zM18.73 44a15.005 15.005 0 0 1 26.54 0" stroke="#000" stroke-width="2" stroke-linecap="round" stroke-linejoin="round"></path></svg><svg width="64" height="64" viewBox="0 0 64 64" fill="none" id="warning" y="1536"><path d="M32 26v10M28.54 9.996L6.546 47.994a4 4 0 0 0 3.462 6.004h43.988a4 4 0 0 0 3.462-6.004L35.464 9.996a4 4 0 0 0-6.924 0z" stroke="#2D3841" stroke-width="2" stroke-linecap="round" stroke-linejoin="round"></path><path d="M34.938 45a2.938 2.938 0 1 1-5.876 0 2.938 2.938 0 0 1 5.875 0z" fill="#2D3841" stroke="#F8F5F0" stroke-width=".125"></path></svg></svg>