<svg xmlns="http://www.w3.org/2000/svg" xmlns:xlink="http://www.w3.org/1999/xlink" width="32" height="352" viewBox="0 0 32 352"><svg width="32" height="32" viewBox="0 0 32 32" fill="none" id="arr-left" y="0"><path fill-rule="evenodd" clip-rule="evenodd" d="M16 27c6.075 0 11-4.925 11-11S22.075 5 16 5 5 9.925 5 16s4.925 11 11 11zm13-11c0 7.18-5.82 13-13 13S3 23.18 3 16 8.82 3 16 3s13 5.82 13 13z" fill="#4F4F4F"/><path fill-rule="evenodd" clip-rule="evenodd" d="M15.95 20.95a1 1 0 0 1-1.414 0l-4.243-4.243a1 1 0 0 1 0-1.415l4.243-4.242a1 1 0 0 1 1.414 1.414L12.414 16l3.536 3.535a1 1 0 0 1 0 1.414z" fill="#4F4F4F"/><path fill-rule="evenodd" clip-rule="evenodd" d="M22 16a1 1 0 0 1-1 1H11a1 1 0 1 1 0-2h10a1 1 0 0 1 1 1z" fill="#4F4F4F"/></svg><svg width="32" height="32" viewBox="0 0 32 32" fill="none" id="arr-right" y="32"><path fill-rule="evenodd" clip-rule="evenodd" d="M16 5C9.925 5 5 9.925 5 16s4.925 11 11 11 11-4.925 11-11S22.075 5 16 5zM3 16C3 8.82 8.82 3 16 3s13 5.82 13 13-5.82 13-13 13S3 23.18 3 16z" fill="#4F4F4F"/><path fill-rule="evenodd" clip-rule="evenodd" d="M16.05 11.05a1 1 0 0 1 1.414 0l4.243 4.243a1 1 0 0 1 0 1.415l-4.243 4.242a1 1 0 0 1-1.414-1.414L19.586 16l-3.536-3.535a1 1 0 0 1 0-1.414z" fill="#4F4F4F"/><path fill-rule="evenodd" clip-rule="evenodd" d="M10 16a1 1 0 0 1 1-1h10a1 1 0 1 1 0 2H11a1 1 0 0 1-1-1z" fill="#4F4F4F"/></svg><svg width="32" height="32" viewBox="0 0 32 32" fill="none" id="calendar" y="64"><path fill-rule="evenodd" clip-rule="evenodd" d="M23 3a1 1 0 1 0-2 0v1H11V3a1 1 0 1 0-2 0v1H6a2 2 0 0 0-2 2v20a2 2 0 0 0 2 2h20a2 2 0 0 0 2-2V6a2 2 0 0 0-2-2h-3V3zm3 7V6h-3v1a1 1 0 1 1-2 0V6H11v1a1 1 0 1 1-2 0V6H6v4h20zM6 12h20v14H6V12z" fill="#4F4F4F"/></svg><svg width="32" height="32" viewBox="0 0 32 32" fill="none" id="cart" y="96"><path d="M26.105 9H5.895a1 1 0 0 0-.994.89l-1.778 16A1 1 0 0 0 4.117 27h23.766a1 1 0 0 0 .994-1.11l-1.778-16a1 1 0 0 0-.994-.89zM11 9a5 5 0 0 1 10 0" stroke="#4F4F4F" stroke-width="2" stroke-linecap="round" stroke-linejoin="round"/></svg><svg width="32" height="32" viewBox="0 0 32 32" fill="none" id="clock" y="128"><path fill-rule="evenodd" clip-rule="evenodd" d="M16 5C9.925 5 5 9.925 5 16s4.925 11 11 11 11-4.925 11-11S22.075 5 16 5zM3 16C3 8.82 8.82 3 16 3s13 5.82 13 13-5.82 13-13 13S3 23.18 3 16z" fill="#4F4F4F"/><path fill-rule="evenodd" clip-rule="evenodd" d="M16 8a1 1 0 0 1 1 1v6h6a1 1 0 1 1 0 2h-7a1 1 0 0 1-1-1V9a1 1 0 0 1 1-1z" fill="#4F4F4F"/></svg><svg width="32" height="32" viewBox="0 0 32 32" fill="none" id="cohort" y="160"><path fill-rule="evenodd" clip-rule="evenodd" d="M16 13.5a4 4 0 1 0 0 8 4 4 0 0 0 0-8zm-6 4a6 6 0 1 1 12 0 6 6 0 0 1-12 0zM27.408 16.185A6.489 6.489 0 0 0 24.5 15.5a1 1 0 1 1-.002-2 8.487 8.487 0 0 1 6.802 3.4 1 1 0 1 1-1.601 1.199 6.487 6.487 0 0 0-2.292-1.914zM7.5 15.5a6.49 6.49 0 0 0-5.2 2.6 1 1 0 0 1-1.6-1.2 8.489 8.489 0 0 1 6.8-3.4 1 1 0 0 1 0 2z" fill="#4F4F4F"/><path fill-rule="evenodd" clip-rule="evenodd" d="M16 23.5a7.002 7.002 0 0 0-6.297 3.938 1 1 0 1 1-1.798-.876 9.004 9.004 0 0 1 16.19 0 1 1 0 0 1-1.798.876A7.003 7.003 0 0 0 16 23.5zM8.246 7.594A3 3 0 1 0 7.5 13.5a1 1 0 1 1 0 2 5 5 0 1 1 4.912-5.939 1 1 0 1 1-1.965.376 3 3 0 0 0-2.2-2.343zM25.427 7.646a3 3 0 0 0-3.875 2.29 1 1 0 0 1-1.964-.375A5 5 0 1 1 24.5 15.5a1 1 0 1 1 0-2 3 3 0 0 0 .927-5.854z" fill="#4F4F4F"/></svg><svg width="32" height="32" viewBox="0 0 32 32" fill="none" id="dollar" y="192"><path fill-rule="evenodd" clip-rule="evenodd" d="M16 8a1 1 0 0 1 1 1v2a1 1 0 1 1-2 0V9a1 1 0 0 1 1-1zM16 20a1 1 0 0 1 1 1v2a1 1 0 1 1-2 0v-2a1 1 0 0 1 1-1z" fill="#4F4F4F"/><path fill-rule="evenodd" clip-rule="evenodd" d="M16 5C9.925 5 5 9.925 5 16s4.925 11 11 11 11-4.925 11-11S22.075 5 16 5zM3 16C3 8.82 8.82 3 16 3s13 5.82 13 13-5.82 13-13 13S3 23.18 3 16z" fill="#4F4F4F"/><path fill-rule="evenodd" clip-rule="evenodd" d="M14.5 12a1.5 1.5 0 1 0 0 3h3a3.5 3.5 0 1 1 0 7H13a1 1 0 1 1 0-2h4.5a1.5 1.5 0 1 0 0-3h-3a3.5 3.5 0 1 1 0-7H19a1 1 0 1 1 0 2h-4.5z" fill="#4F4F4F"/></svg><svg width="32" height="32" viewBox="0 0 32 32" fill="none" id="globe" y="224"><path fill-rule="evenodd" clip-rule="evenodd" d="M12.499 5.569c-2.741.92-5 2.89-6.3 5.431h4.262c.262-1.355.63-2.59 1.084-3.651.279-.651.597-1.252.954-1.78zM10.16 13H5.414c-.27.954-.414 1.96-.414 3s.144 2.046.414 3h4.746a27.707 27.707 0 0 1-.16-3c0-1.03.055-2.036.16-3zm2.013 6A25.59 25.59 0 0 1 12 16c0-1.044.06-2.05.173-3h7.654c.112.95.173 1.956.173 3s-.06 2.05-.173 3h-7.654zm-1.712 2H6.199a11.034 11.034 0 0 0 6.3 5.431 10.723 10.723 0 0 1-.954-1.78c-.454-1.06-.822-2.296-1.084-3.651zm9.04 5.431c2.741-.92 5-2.89 6.3-5.431h-4.262c-.262 1.355-.63 2.59-1.084 3.651a10.723 10.723 0 0 1-.954 1.78zM19.498 21a15.646 15.646 0 0 1-.882 2.864c-.42.983-.896 1.714-1.373 2.185-.472.467-.891.629-1.243.629-.352 0-.77-.162-1.243-.63-.477-.47-.952-1.201-1.373-2.184A15.654 15.654 0 0 1 12.502 21h6.996zm2.342-2h4.746c.27-.954.414-1.96.414-3s-.144-2.046-.414-3H21.84c.105.964.16 1.97.16 3 0 1.031-.055 2.036-.16 3zm-.3-8h4.26a11.034 11.034 0 0 0-6.299-5.431c.357.528.675 1.129.954 1.78.454 1.06.822 2.296 1.084 3.651zm-2.042 0h-6.996c.23-1.075.53-2.041.882-2.864.42-.982.896-1.714 1.373-2.185.472-.466.891-.629 1.243-.629.352 0 .77.163 1.243.63.477.47.953 1.202 1.373 2.184.352.823.652 1.789.882 2.864zM16 3C8.82 3 3 8.82 3 16s5.82 13 13 13 13-5.82 13-13S23.18 3 16 3z" fill="#4F4F4F"/></svg><svg width="32" height="32" viewBox="0 0 32 32" fill="none" id="laptop" y="256"><path fill-rule="evenodd" clip-rule="evenodd" d="M7 8a1 1 0 0 0-1 1v13a1 1 0 1 1-2 0V9a3 3 0 0 1 3-3h18a3 3 0 0 1 3 3v13a1 1 0 1 1-2 0V9a1 1 0 0 0-1-1H7z" fill="#4F4F4F"/><path fill-rule="evenodd" clip-rule="evenodd" d="M2 22a1 1 0 0 1 1-1h26a1 1 0 0 1 1 1v2a3 3 0 0 1-3 3H5a3 3 0 0 1-3-3v-2zm2 1v1a1 1 0 0 0 1 1h22a1 1 0 0 0 1-1v-1H4zM13 11a1 1 0 0 1 1-1h4a1 1 0 1 1 0 2h-4a1 1 0 0 1-1-1z" fill="#4F4F4F"/></svg><svg width="32" height="32" viewBox="0 0 32 32" fill="none" id="phone" y="288"><path d="M23.18 30.04c-3.27 0-8.51-1.15-14.27-6.91C.8 15.03 1.83 7.94 2.34 5.95c.44-1.73 1.88-3.04 4.14-3.8 1.46-.49 3.08.26 3.68 1.71l2.07 4.96c.48 1.15.19 2.49-.71 3.34l-.91.86c-.33.31-.42.78-.22 1.17.47.91 1.41 2.38 3.24 4.2 1.83 1.83 3.3 2.77 4.2 3.24.39.2.86.12 1.17-.22l.86-.91c.85-.9 2.2-1.19 3.34-.71l4.96 2.07c1.45.6 2.2 2.22 1.71 3.69-.76 2.27-2.07 3.7-3.81 4.14-.57.15-1.58.34-2.91.34l.03.01zM7.4 4c-.1 0-.19.02-.29.05-1.11.37-2.5 1.09-2.84 2.4-.91 3.55.2 9.42 6.04 15.27 5.85 5.85 11.72 6.96 15.27 6.04 1.32-.34 2.04-1.73 2.41-2.84.16-.47-.1-1-.58-1.21l-4.96-2.07a1 1 0 0 0-1.12.24l-.86.91c-.92.97-2.38 1.23-3.55.62-1.03-.53-2.69-1.59-4.7-3.6-2.01-2.01-3.07-3.67-3.6-4.7-.61-1.17-.35-2.63.62-3.55l.91-.86c.3-.29.4-.73.24-1.12L8.32 4.62c-.16-.39-.53-.63-.92-.63V4z" fill="#4F4F4F"/><path d="M24.107 2H21.14C17.908 2 15.095 4.49 15 7.716a5.898 5.898 0 0 0 5.893 6.078h3.214V17l3.623-3.626A7.76 7.76 0 0 0 30 7.897 5.899 5.899 0 0 0 24.107 2zm-5.684 7.128c-.6 0-1.077-.487-1.077-1.078 0-.592.486-1.079 1.077-1.079s1.078.487 1.078 1.079c0 .591-.487 1.078-1.078 1.078zm4.072 0c-.6 0-1.078-.487-1.078-1.078 0-.592.487-1.079 1.078-1.079.591 0 1.078.487 1.078 1.079 0 .591-.487 1.078-1.078 1.078zm4.072 0c-.6 0-1.078-.487-1.078-1.078 0-.592.487-1.079 1.078-1.079.591 0 1.077.487 1.077 1.079 0 .591-.486 1.078-1.077 1.078z" fill="#4F4F4F"/></svg><svg width="32" height="32" viewBox="0 0 32 32" fill="none" id="schedule" y="320"><path fill-rule="evenodd" clip-rule="evenodd" d="M23 3a1 1 0 1 0-2 0v1H11V3a1 1 0 1 0-2 0v1H6a2 2 0 0 0-2 2v20a2 2 0 0 0 2 2h20a2 2 0 0 0 2-2V6a2 2 0 0 0-2-2h-3V3zm3 3h-3v1a1 1 0 1 1-2 0V6H11v1a1 1 0 1 1-2 0V6H6v4h20V6zM6 12h20v14H6V12zm5.5 7a1 1 0 0 1 1-1H15v-2.5a1 1 0 1 1 2 0V18h2.5a1 1 0 1 1 0 2H17v2.5a1 1 0 1 1-2 0V20h-2.5a1 1 0 0 1-1-1z" fill="#4F4F4F"/></svg></svg>